<?xml version="1.0" standalone="no"?>
<!DOCTYPE svg PUBLIC "-//W3C//DTD SVG 20010904//EN"
 "http://www.w3.org/TR/2001/REC-SVG-20010904/DTD/svg10.dtd">
<svg version="1.0" xmlns="http://www.w3.org/2000/svg"
 width="1000.000000pt" height="1000.000000pt" viewBox="0 0 1000.000000 1000.000000"
 preserveAspectRatio="xMidYMid meet">
<metadata>
Created by potrace 1.14, written by Peter Selinger 2001-2017
</metadata>
<g transform="translate(0.000000,1000.000000) scale(0.100000,-0.100000)"
fill="#000000" stroke="none">
<path d="M700 5041 l0 -1991 420 0 420 0 0 645 0 645 423 0 c498 0 615 11 837
77 352 105 642 355 782 675 90 207 131 478 109 721 -20 223 -52 340 -142 522
-157 318 -439 538 -811 634 -207 54 -211 54 -1155 58 l-883 4 0 -1990z m1660
1275 c95 -26 218 -88 276 -140 69 -61 121 -142 158 -246 30 -82 31 -91 30
-250 0 -152 -2 -171 -27 -246 -52 -157 -154 -273 -301 -343 -144 -69 -176 -73
-588 -78 l-368 -5 0 667 0 666 378 -4 c321 -3 387 -6 442 -21z"/>
<path d="M4012 7015 c2 -8 257 -903 568 -1990 l565 -1975 413 0 c226 0 412 2
412 4 0 3 169 585 375 1295 206 710 375 1293 375 1296 0 3 8 5 18 5 15 0 24
-16 40 -72 12 -40 182 -625 379 -1300 l357 -1228 411 0 411 0 567 1983 c312
1090 567 1985 567 1990 0 4 -206 6 -457 5 l-457 -3 -326 -1370 c-179 -753
-329 -1378 -333 -1387 -9 -25 -36 -22 -42 5 -3 12 -167 636 -363 1387 l-357
1365 -394 0 -394 0 -352 -1340 c-194 -737 -358 -1359 -364 -1382 -8 -30 -17
-43 -29 -43 -15 0 -65 201 -347 1385 l-330 1385 -458 0 c-398 0 -458 -2 -455
-15z"/>
</g>
</svg>
